<svg width="280" height="50" viewBox="0 0 280 50" fill="none" xmlns="http://www.w3.org/2000/svg">
<g clip-path="url(#clip0_90_517)">
<mask id="mask0_90_517" style="mask-type:alpha" maskUnits="userSpaceOnUse" x="-2" y="-1" width="56" height="52">
<path d="M20.439 0.55814C21.1175 0.441935 22.2396 0.299907 22.9181 0.235351C23.5967 0.170792 24.9537 0.15788 25.9194 0.183703C26.885 0.222438 28.2421 0.325731 28.9206 0.429024C29.5992 0.532316 30.8388 0.777637 31.6609 0.984222C32.4829 1.19081 33.7748 1.60398 34.5317 1.90094C35.2885 2.19791 36.5151 2.76603 37.2718 3.16629C38.0288 3.55363 38.9944 4.12173 39.425 4.40579C39.8555 4.68985 40.5863 5.21923 41.056 5.56784C41.5258 5.92937 42.361 6.6395 42.922 7.13014C43.4832 7.63368 44.501 8.67952 45.1925 9.46714C45.871 10.2547 46.8628 11.5201 47.3847 12.3077C47.9067 13.0953 48.5983 14.2186 48.9246 14.8254C49.2508 15.4323 49.7858 16.5556 50.112 17.3432C50.4251 18.1308 50.9602 19.6027 51.2734 20.6356C51.5996 21.6687 51.9779 23.1147 52.1215 23.8635C52.265 24.6125 52.4607 25.8003 52.5521 26.5104C52.6564 27.2336 52.7217 28.9765 52.7087 30.513C52.7087 32.2432 52.6173 33.8313 52.4869 34.9029C52.3694 35.8197 52.0954 37.3949 51.8867 38.389C51.6778 39.3832 51.2603 40.9842 50.9602 41.9397C50.6601 42.8952 50.1773 44.3284 49.8641 45.1031C49.564 45.8777 48.9637 47.2723 47.7762 49.8288H0.539412L1.58332 49.1574C2.15747 48.7959 3.18833 48.0469 3.86687 47.5176C4.54542 46.9753 5.772 45.8908 6.59407 45.1031C7.40311 44.3284 8.52531 43.1664 9.07335 42.5209C9.63446 41.8752 10.3521 41.0101 10.6784 40.5841C11.0046 40.1581 11.5787 39.3187 11.9571 38.7118C12.3486 38.105 13.0272 36.8526 13.4969 35.936C13.9667 35.0192 14.5669 33.586 14.841 32.7726C15.115 31.9591 15.4542 30.7067 15.5978 29.9966C15.7413 29.2865 15.911 28.0856 15.9632 27.3238C16.0545 26.1618 16.0936 25.9682 16.2633 26.0586C16.3677 26.1101 16.9288 26.5878 17.4898 27.1045C18.051 27.6337 18.9644 28.6151 19.5124 29.2865C20.0605 29.9579 20.8434 31.0682 21.248 31.7396C21.6656 32.411 22.2657 33.6118 22.6051 34.3865C22.9443 35.1611 23.3357 36.2974 23.7664 38.0017L23.8055 36.7752C23.8317 35.9101 23.7664 35.1483 23.5707 34.1928C23.4141 33.444 23.14 32.3981 22.9704 31.8687C22.7876 31.3394 22.4093 30.4098 22.1223 29.8029C21.8352 29.1961 21.2871 28.2406 20.8957 27.6724C20.5172 27.1045 19.8125 26.1877 19.3428 25.6324C18.873 25.0902 18.0249 24.2509 17.4768 23.7861C16.9157 23.3212 15.9892 22.637 15.4151 22.2625C14.841 21.888 13.8101 21.2942 13.1316 20.9584C12.453 20.6098 11.0698 20.0029 10.0651 19.5769C9.0603 19.1637 7.78153 18.5569 7.22042 18.2082C6.65931 17.8726 5.98079 17.382 5.23701 16.6072L9.41262 16.6847C11.7092 16.7234 13.5361 16.7364 13.4578 16.6976C13.3795 16.6718 11.8267 16.3232 9.99983 15.9358C8.17299 15.5356 6.03298 15.0708 5.23701 14.89C4.44101 14.7092 3.51456 14.4252 3.14919 14.2702C2.79687 14.1024 2.26186 13.7021 1.97478 13.3794C1.68771 13.0695 1.2571 12.4239 1.02222 11.972C0.78734 11.5201 0.513314 10.7066 0.395875 10.1773C0.256687 9.5317 0.213192 8.88611 0.265386 8.24053C0.317582 7.49166 0.435021 7.06558 0.774292 6.36836C1.08746 5.76151 1.45283 5.25796 1.92259 4.8448C2.31405 4.49618 2.9404 4.10882 3.34491 3.95389C4.01041 3.70856 4.36272 3.68274 7.84677 3.65692C11.3047 3.6311 11.6962 3.60528 12.3486 3.35995C12.7401 3.21793 13.8884 2.74021 14.8931 2.3012C15.8979 1.86221 17.2811 1.34575 17.9596 1.15207C18.6382 0.945488 19.7604 0.687255 20.439 0.55814Z" fill="white" stroke="black" stroke-opacity="0.2"/>
</mask>
<g mask="url(#mask0_90_517)">
<path d="M22.7143 74.6712C45.3577 74.6712 63.7138 56.4908 63.7138 34.0642C63.7138 11.6376 45.3577 -6.54281 22.7143 -6.54281C0.0708218 -6.54281 -18.2853 11.6376 -18.2853 34.0642C-18.2853 56.4908 0.0708218 74.6712 22.7143 74.6712Z" fill="url(#paint0_linear_90_517)"/>
</g>
<mask id="mask1_90_517" style="mask-type:alpha" maskUnits="userSpaceOnUse" x="0" y="0" width="53" height="50">
<path d="M20.439 0.55814C21.1175 0.441935 22.2396 0.299907 22.9181 0.235351C23.5967 0.170792 24.9537 0.15788 25.9194 0.183703C26.885 0.222438 28.2421 0.325731 28.9206 0.429024C29.5992 0.532316 30.8388 0.777637 31.6609 0.984222C32.4829 1.19081 33.7748 1.60398 34.5317 1.90094C35.2885 2.19791 36.5151 2.76603 37.2718 3.16629C38.0288 3.55363 38.9944 4.12173 39.425 4.40579C39.8555 4.68985 40.5863 5.21923 41.056 5.56784C41.5258 5.92937 42.361 6.6395 42.922 7.13014C43.4832 7.63368 44.501 8.67952 45.1925 9.46714C45.871 10.2547 46.8628 11.5201 47.3847 12.3077C47.9067 13.0953 48.5983 14.2186 48.9246 14.8254C49.2508 15.4323 49.7858 16.5556 50.112 17.3432C50.4251 18.1308 50.9602 19.6027 51.2734 20.6356C51.5996 21.6687 51.9779 23.1147 52.1215 23.8635C52.265 24.6125 52.4607 25.8003 52.5521 26.5104C52.6564 27.2336 52.7217 28.9765 52.7087 30.513C52.7087 32.2432 52.6173 33.8313 52.4869 34.9029C52.3694 35.8197 52.0954 37.3949 51.8867 38.389C51.6778 39.3832 51.2603 40.9842 50.9602 41.9397C50.6601 42.8952 50.1773 44.3284 49.8641 45.1031C49.564 45.8777 48.9637 47.2723 47.7762 49.8288H0.539412L1.58332 49.1574C2.15747 48.7959 3.18833 48.0469 3.86687 47.5176C4.54542 46.9753 5.772 45.8908 6.59407 45.1031C7.40311 44.3284 8.52531 43.1664 9.07335 42.5209C9.63446 41.8752 10.3521 41.0101 10.6784 40.5841C11.0046 40.1581 11.5787 39.3187 11.9571 38.7118C12.3486 38.105 13.0272 36.8526 13.4969 35.936C13.9667 35.0192 14.5669 33.586 14.841 32.7726C15.115 31.9591 15.4542 30.7067 15.5978 29.9966C15.7413 29.2865 15.911 28.0856 15.9632 27.3238C16.0545 26.1618 16.0936 25.9682 16.2633 26.0586C16.3677 26.1101 16.9288 26.5878 17.4898 27.1045C18.051 27.6337 18.9644 28.6151 19.5124 29.2865C20.0605 29.9579 20.8434 31.0682 21.248 31.7396C21.6656 32.411 22.2657 33.6118 22.6051 34.3865C22.9443 35.1611 23.3357 36.2974 23.7664 38.0017L23.8055 36.7752C23.8317 35.9101 23.7664 35.1483 23.5707 34.1928C23.4141 33.444 23.14 32.3981 22.9704 31.8687C22.7876 31.3394 22.4093 30.4098 22.1223 29.8029C21.8352 29.1961 21.2871 28.2406 20.8957 27.6724C20.5172 27.1045 19.8125 26.1877 19.3428 25.6324C18.873 25.0902 18.0249 24.2509 17.4768 23.7861C16.9157 23.3212 15.9892 22.637 15.4151 22.2625C14.841 21.888 13.8101 21.2942 13.1316 20.9584C12.453 20.6098 11.0698 20.0029 10.0651 19.5769C9.0603 19.1637 7.78153 18.5569 7.22042 18.2082C6.65931 17.8726 5.98079 17.382 5.23701 16.6072L9.41262 16.6847C11.7092 16.7234 13.5361 16.7364 13.4578 16.6976C13.3795 16.6718 11.8267 16.3232 9.99983 15.9358C8.17299 15.5356 6.03298 15.0708 5.23701 14.89C4.44101 14.7092 3.51456 14.4252 3.14919 14.2702C2.79687 14.1024 2.26186 13.7021 1.97478 13.3794C1.68771 13.0695 1.2571 12.4239 1.02222 11.972C0.78734 11.5201 0.513314 10.7066 0.395875 10.1773C0.256687 9.5317 0.213192 8.88611 0.265386 8.24053C0.317582 7.49166 0.435021 7.06558 0.774292 6.36836C1.08746 5.76151 1.45283 5.25796 1.92259 4.8448C2.31405 4.49618 2.9404 4.10882 3.34491 3.95389C4.01041 3.70856 4.36272 3.68274 7.84677 3.65692C11.3047 3.6311 11.6962 3.60528 12.3486 3.35995C12.7401 3.21793 13.8884 2.74021 14.8931 2.3012C15.8979 1.86221 17.2811 1.34575 17.9596 1.15207C18.6382 0.945488 19.7604 0.687255 20.439 0.55814Z" fill="white"/>
</mask>
<g mask="url(#mask1_90_517)">
<path d="M2.44758 99.6225C33.1399 121.514 68.7649 124.512 82.0183 106.319C95.2716 88.1264 81.1346 55.6318 50.4423 33.7405C19.75 11.8492 -15.875 8.851 -29.1284 27.0438C-42.3818 45.2366 -28.2447 77.7312 2.44758 99.6225Z" fill="url(#paint1_linear_90_517)"/>
</g>
<path d="M73.546 33.1336H66.0658V10.9589L73.546 33.1336ZM87.2345 24.5334V10.9589H94.6845V33.1336H87.2345L73.546 19.5591V33.1336H66.0658V10.9589H73.546L87.2345 24.5334ZM118.679 24.5034H104.688V27.8896L121.223 27.7697V33.1336H97.2077V10.9589H121.223L121.253 16.3228H104.688V19.2594H118.679V24.5034ZM141.281 33.1036L135.073 25.9418H130.439V33.1036H123.292V10.9289H140.221C142.099 10.9289 143.755 11.2386 145.188 11.8579C146.642 12.4772 147.762 13.3462 148.55 14.4649C149.357 15.5636 149.761 16.8422 149.761 18.3005V18.4204C149.761 20.3182 149.196 21.8865 148.065 23.125C146.955 24.3635 145.41 25.1926 143.431 25.6122L149.943 33.1036H141.281ZM142.735 18.4803C142.735 17.7012 142.563 17.1319 142.22 16.7723C141.897 16.4127 141.473 16.1929 140.948 16.113C140.423 16.0331 139.656 15.9932 138.647 15.9932H137.556C136.062 16.0331 133.69 16.0531 130.439 16.0531V20.8176H138.586H138.647C139.656 20.8176 140.423 20.7777 140.948 20.6978C141.473 20.6178 141.897 20.4182 142.22 20.0985C142.563 19.7589 142.735 19.2195 142.735 18.4803ZM168.731 10.9589C170.609 10.9589 172.264 11.2685 173.699 11.8878C175.152 12.5071 176.272 13.3761 177.059 14.4949C177.867 15.5936 178.271 16.8721 178.271 18.3305V18.4503C178.271 20.8476 177.444 22.7055 175.787 24.024C174.131 25.3224 171.871 25.9717 169.004 25.9717H159.282V33.1336H151.802V10.9589H168.731ZM167.399 20.7277C168.449 20.7277 169.226 20.6978 169.731 20.6378C170.256 20.5779 170.69 20.3882 171.033 20.0685C171.376 19.7488 171.548 19.2195 171.548 18.4803C171.548 17.7212 171.376 17.1717 171.033 16.8322C170.69 16.4926 170.245 16.2828 169.7 16.2029C169.155 16.123 168.388 16.083 167.399 16.083H166.399C165.996 16.083 165.289 16.093 164.279 16.113C163.27 16.113 161.604 16.113 159.282 16.113V20.7277H167.368H167.399ZM204.467 26.1216L212.855 10.9589H220.426L208.616 33.1336H200.136L188.417 10.9589H196.533L204.467 26.1216ZM238.616 10.9589C240.494 10.9589 242.15 11.2685 243.583 11.8878C245.036 12.5071 246.156 13.3761 246.943 14.4949C247.752 15.5936 248.155 16.8721 248.155 18.3305V18.4503C248.155 20.8476 247.328 22.7055 245.671 24.024C244.017 25.3224 241.755 25.9717 238.888 25.9717H229.167V33.1336H221.686V10.9589H238.616ZM237.284 20.7277C238.334 20.7277 239.111 20.6978 239.615 20.6378C240.141 20.5779 240.575 20.3882 240.918 20.0685C241.26 19.7488 241.432 19.2195 241.432 18.4803C241.432 17.7212 241.26 17.1717 240.918 16.8322C240.575 16.4926 240.13 16.2828 239.585 16.2029C239.04 16.123 238.273 16.083 237.284 16.083H236.283C235.88 16.083 235.174 16.093 234.163 16.113C233.155 16.113 231.49 16.113 229.167 16.113V20.7277H237.252H237.284ZM257.5 33.1336H250.019V10.9589L257.5 33.1336ZM271.188 24.5334V10.9589H278.638V33.1336H271.188L257.5 19.5591V33.1336H250.019V10.9589H257.5L271.188 24.5334Z" fill="#080025"/>
</g>
<defs>
<linearGradient id="paint0_linear_90_517" x1="30.9274" y1="6.23967" x2="-17.9984" y2="-24.5584" gradientUnits="userSpaceOnUse">
<stop stop-color="#45ABFF"/>
<stop offset="1" stop-color="#2D03C3"/>
</linearGradient>
<linearGradient id="paint1_linear_90_517" x1="54.3969" y1="38.6479" x2="37.8825" y2="-11.3517" gradientUnits="userSpaceOnUse">
<stop stop-color="#45ABFF"/>
<stop offset="1" stop-color="#2D03C3"/>
</linearGradient>
<clipPath id="clip0_90_517">
<rect width="280" height="50" fill="white"/>
</clipPath>
</defs>
</svg>
