<svg width="280" height="50" viewBox="0 0 280 50" fill="none" xmlns="http://www.w3.org/2000/svg">
<g clip-path="url(#clip0_191_505)">
<mask id="mask0_191_505" style="mask-type:alpha" maskUnits="userSpaceOnUse" x="-2" y="-1" width="56" height="52">
<path d="M20.4389 0.557804C21.1175 0.441599 22.2396 0.299571 22.9181 0.235015C23.5967 0.170456 24.9537 0.157545 25.9194 0.183368C26.885 0.222102 28.2421 0.325395 28.9206 0.428688C29.5992 0.531981 30.8388 0.777301 31.6609 0.983887C32.4829 1.19047 33.7748 1.60364 34.5317 1.90061C35.2885 2.19758 36.5151 2.76569 37.2718 3.16595C38.0288 3.5533 38.9944 4.12139 39.425 4.40545C39.8555 4.68951 40.5863 5.2189 41.056 5.56751C41.5258 5.92903 42.361 6.63917 42.922 7.1298C43.4832 7.63335 44.501 8.67919 45.1925 9.46681C45.871 10.2544 46.8628 11.5198 47.3847 12.3074C47.9066 13.095 48.5983 14.2183 48.9245 14.8251C49.2507 15.432 49.7858 16.5553 50.112 17.3428C50.4251 18.1305 50.9602 19.6024 51.2734 20.6353C51.5996 21.6683 51.9779 23.1144 52.1215 23.8632C52.265 24.6122 52.4607 25.8 52.5521 26.5101C52.6564 27.2332 52.7217 28.9762 52.7087 30.5127C52.7087 32.2428 52.6173 33.831 52.4868 34.9026C52.3693 35.8194 52.0954 37.3945 51.8867 38.3887C51.6778 39.3829 51.2602 40.9839 50.9602 41.9394C50.6601 42.8949 50.1773 44.3281 49.864 45.1027C49.564 45.8774 48.9636 47.2719 47.7762 49.8284H0.539397L1.58331 49.157C2.15746 48.7956 3.18832 48.0466 3.86686 47.5173C4.5454 46.975 5.77199 45.8904 6.59406 45.1027C7.4031 44.3281 8.5253 43.1661 9.07334 42.5206C9.63445 41.8748 10.3521 41.0098 10.6784 40.5837C11.0046 40.1577 11.5787 39.3183 11.9571 38.7115C12.3486 38.1046 13.0272 36.8522 13.4969 35.9356C13.9667 35.0188 14.5669 33.5856 14.8409 32.7723C15.115 31.9587 15.4542 30.7063 15.5978 29.9962C15.7413 29.2861 15.9109 28.0853 15.9631 27.3235C16.0545 26.1615 16.0936 25.9678 16.2633 26.0582C16.3676 26.1098 16.9288 26.5875 17.4898 27.1041C18.051 27.6334 18.9644 28.6147 19.5124 29.2861C20.0605 29.9575 20.8434 31.0678 21.248 31.7392C21.6656 32.4106 22.2657 33.6115 22.6051 34.3861C22.9442 35.1608 23.3357 36.2971 23.7664 38.0014L23.8055 36.7748C23.8317 35.9098 23.7664 35.148 23.5707 34.1925C23.4141 33.4437 23.14 32.3978 22.9704 31.8683C22.7876 31.3391 22.4093 30.4094 22.1222 29.8026C21.8351 29.1957 21.2871 28.2402 20.8956 27.6721C20.5172 27.1041 19.8125 26.1873 19.3428 25.632C18.873 25.0899 18.0249 24.2505 17.4768 23.7858C16.9157 23.3209 15.9892 22.6367 15.4151 22.2622C14.8409 21.8877 13.8101 21.2938 13.1315 20.9581C12.453 20.6094 11.0698 20.0026 10.0651 19.5765C9.06029 19.1634 7.78151 18.5565 7.22041 18.2079C6.6593 17.8723 5.98077 17.3817 5.23699 16.6069L9.41261 16.6844C11.7092 16.7231 13.536 16.736 13.4578 16.6973C13.3795 16.6715 11.8266 16.3229 9.99981 15.9355C8.17298 15.5352 6.03297 15.0704 5.23699 14.8897C4.441 14.7089 3.51454 14.4249 3.14917 14.2699C2.79685 14.1021 2.26184 13.7018 1.97477 13.379C1.6877 13.0691 1.25708 12.4236 1.0222 11.9717C0.787325 11.5198 0.513299 10.7063 0.39586 10.1769C0.256671 9.53136 0.213176 8.88578 0.265371 8.2402C0.317567 7.49133 0.435006 7.06525 0.774277 6.36802C1.08745 5.76117 1.45282 5.25763 1.92257 4.84446C2.31404 4.49585 2.94039 4.10848 3.3449 3.95355C4.01039 3.70823 4.36271 3.68241 7.84675 3.65658C11.3047 3.63076 11.6962 3.60494 12.3486 3.35961C12.7401 3.21759 13.8884 2.73987 14.8931 2.30086C15.8979 1.86187 17.2811 1.34541 17.9596 1.15174C18.6382 0.945152 19.7604 0.686919 20.4389 0.557804Z" fill="white" stroke="black" stroke-opacity="0.2"/>
</mask>
<g mask="url(#mask0_191_505)">
<path d="M22.7142 74.6711C45.3577 74.6711 63.7138 56.4907 63.7138 34.064C63.7138 11.6374 45.3577 -6.54297 22.7142 -6.54297C0.0707989 -6.54297 -18.2853 11.6374 -18.2853 34.064C-18.2853 56.4907 0.0707989 74.6711 22.7142 74.6711Z" fill="url(#paint0_linear_191_505)"/>
</g>
<mask id="mask1_191_505" style="mask-type:alpha" maskUnits="userSpaceOnUse" x="0" y="0" width="53" height="50">
<path d="M20.4389 0.557804C21.1175 0.441599 22.2396 0.299571 22.9181 0.235015C23.5967 0.170456 24.9537 0.157545 25.9194 0.183368C26.885 0.222102 28.2421 0.325395 28.9206 0.428688C29.5992 0.531981 30.8388 0.777301 31.6609 0.983887C32.4829 1.19047 33.7748 1.60364 34.5317 1.90061C35.2885 2.19758 36.5151 2.76569 37.2718 3.16595C38.0288 3.5533 38.9944 4.12139 39.425 4.40545C39.8555 4.68951 40.5863 5.2189 41.056 5.56751C41.5258 5.92903 42.361 6.63917 42.922 7.1298C43.4832 7.63335 44.501 8.67919 45.1925 9.46681C45.871 10.2544 46.8628 11.5198 47.3847 12.3074C47.9066 13.095 48.5983 14.2183 48.9245 14.8251C49.2507 15.432 49.7858 16.5553 50.112 17.3428C50.4251 18.1305 50.9602 19.6024 51.2734 20.6353C51.5996 21.6683 51.9779 23.1144 52.1215 23.8632C52.265 24.6122 52.4607 25.8 52.5521 26.5101C52.6564 27.2332 52.7217 28.9762 52.7087 30.5127C52.7087 32.2428 52.6173 33.831 52.4868 34.9026C52.3693 35.8194 52.0954 37.3945 51.8867 38.3887C51.6778 39.3829 51.2602 40.9839 50.9602 41.9394C50.6601 42.8949 50.1773 44.3281 49.864 45.1027C49.564 45.8774 48.9636 47.2719 47.7762 49.8284H0.539397L1.58331 49.157C2.15746 48.7956 3.18832 48.0466 3.86686 47.5173C4.5454 46.975 5.77199 45.8904 6.59406 45.1027C7.4031 44.3281 8.5253 43.1661 9.07334 42.5206C9.63445 41.8748 10.3521 41.0098 10.6784 40.5837C11.0046 40.1577 11.5787 39.3183 11.9571 38.7115C12.3486 38.1046 13.0272 36.8522 13.4969 35.9356C13.9667 35.0188 14.5669 33.5856 14.8409 32.7723C15.115 31.9587 15.4542 30.7063 15.5978 29.9962C15.7413 29.2861 15.9109 28.0853 15.9631 27.3235C16.0545 26.1615 16.0936 25.9678 16.2633 26.0582C16.3676 26.1098 16.9288 26.5875 17.4898 27.1041C18.051 27.6334 18.9644 28.6147 19.5124 29.2861C20.0605 29.9575 20.8434 31.0678 21.248 31.7392C21.6656 32.4106 22.2657 33.6115 22.6051 34.3861C22.9442 35.1608 23.3357 36.2971 23.7664 38.0014L23.8055 36.7748C23.8317 35.9098 23.7664 35.148 23.5707 34.1925C23.4141 33.4437 23.14 32.3978 22.9704 31.8683C22.7876 31.3391 22.4093 30.4094 22.1222 29.8026C21.8351 29.1957 21.2871 28.2402 20.8956 27.6721C20.5172 27.1041 19.8125 26.1873 19.3428 25.632C18.873 25.0899 18.0249 24.2505 17.4768 23.7858C16.9157 23.3209 15.9892 22.6367 15.4151 22.2622C14.8409 21.8877 13.8101 21.2938 13.1315 20.9581C12.453 20.6094 11.0698 20.0026 10.0651 19.5765C9.06029 19.1634 7.78151 18.5565 7.22041 18.2079C6.6593 17.8723 5.98077 17.3817 5.23699 16.6069L9.41261 16.6844C11.7092 16.7231 13.536 16.736 13.4578 16.6973C13.3795 16.6715 11.8266 16.3229 9.99981 15.9355C8.17298 15.5352 6.03297 15.0704 5.23699 14.8897C4.441 14.7089 3.51454 14.4249 3.14917 14.2699C2.79685 14.1021 2.26184 13.7018 1.97477 13.379C1.6877 13.0691 1.25708 12.4236 1.0222 11.9717C0.787325 11.5198 0.513299 10.7063 0.39586 10.1769C0.256671 9.53136 0.213176 8.88578 0.265371 8.2402C0.317567 7.49133 0.435006 7.06525 0.774277 6.36802C1.08745 5.76117 1.45282 5.25763 1.92257 4.84446C2.31404 4.49585 2.94039 4.10848 3.3449 3.95355C4.01039 3.70823 4.36271 3.68241 7.84675 3.65658C11.3047 3.63076 11.6962 3.60494 12.3486 3.35961C12.7401 3.21759 13.8884 2.73987 14.8931 2.30086C15.8979 1.86187 17.2811 1.34541 17.9596 1.15174C18.6382 0.945152 19.7604 0.686919 20.4389 0.557804Z" fill="white"/>
</mask>
<g mask="url(#mask1_191_505)">
<path d="M2.44756 99.6222C33.1399 121.514 68.7649 124.512 82.0182 106.319C95.2716 88.1261 81.1346 55.6316 50.4423 33.7402C19.75 11.8489 -15.875 8.85072 -29.1284 27.0435C-42.3818 45.2363 -28.2447 77.7309 2.44756 99.6222Z" fill="url(#paint1_linear_191_505)"/>
</g>
<path d="M73.546 33.1333H66.0658V10.9587L73.546 33.1333ZM87.2345 24.5332V10.9587H94.6845V33.1333H87.2345L73.546 19.5588V33.1333H66.0658V10.9587H73.546L87.2345 24.5332ZM118.679 24.5032H104.688V27.8893L121.223 27.7695V33.1333H97.2077V10.9587H121.223L121.253 16.3225H104.688V19.2592H118.679V24.5032ZM141.281 33.1034L135.073 25.9416H130.439V33.1034H123.292V10.9287H140.221C142.099 10.9287 143.755 11.2384 145.188 11.8576C146.642 12.4769 147.762 13.346 148.55 14.4647C149.357 15.5634 149.761 16.8419 149.761 18.3003V18.4201C149.761 20.3179 149.196 21.8862 148.065 23.1248C146.955 24.3633 145.41 25.1924 143.431 25.6119L149.943 33.1034H141.281ZM142.735 18.4801C142.735 17.701 142.563 17.1316 142.22 16.772C141.897 16.4124 141.473 16.1927 140.948 16.1128C140.423 16.0329 139.656 15.9929 138.647 15.9929H137.556C136.062 16.0329 133.69 16.0529 130.439 16.0529V20.8174H138.586H138.647C139.656 20.8174 140.423 20.7775 140.948 20.6975C141.473 20.6176 141.897 20.4179 142.22 20.0982C142.563 19.7587 142.735 19.2193 142.735 18.4801ZM168.731 10.9587C170.609 10.9587 172.264 11.2683 173.699 11.8876C175.152 12.5069 176.272 13.3759 177.059 14.4946C177.867 15.5934 178.271 16.8719 178.271 18.3303V18.4501C178.271 20.8474 177.444 22.7053 175.787 24.0237C174.131 25.3222 171.871 25.9715 169.004 25.9715H159.282V33.1333H151.802V10.9587H168.731ZM167.399 20.7275C168.449 20.7275 169.226 20.6975 169.731 20.6376C170.256 20.5777 170.69 20.388 171.033 20.0683C171.376 19.7486 171.548 19.2193 171.548 18.4801C171.548 17.721 171.376 17.1715 171.033 16.832C170.69 16.4924 170.245 16.2826 169.7 16.2027C169.155 16.1228 168.388 16.0828 167.399 16.0828H166.399C165.996 16.0828 165.289 16.0928 164.279 16.1128C163.27 16.1128 161.604 16.1128 159.282 16.1128V20.7275H167.368H167.399ZM204.467 26.1213L212.855 10.9587H220.426L208.616 33.1333H200.136L188.417 10.9587H196.533L204.467 26.1213ZM238.616 10.9587C240.494 10.9587 242.15 11.2683 243.583 11.8876C245.036 12.5069 246.156 13.3759 246.943 14.4946C247.752 15.5934 248.155 16.8719 248.155 18.3303V18.4501C248.155 20.8474 247.328 22.7053 245.671 24.0237C244.017 25.3222 241.755 25.9715 238.888 25.9715H229.167V33.1333H221.686V10.9587H238.616ZM237.284 20.7275C238.334 20.7275 239.111 20.6975 239.615 20.6376C240.141 20.5777 240.575 20.388 240.918 20.0683C241.26 19.7486 241.432 19.2193 241.432 18.4801C241.432 17.721 241.26 17.1715 240.918 16.832C240.575 16.4924 240.13 16.2826 239.585 16.2027C239.04 16.1228 238.273 16.0828 237.284 16.0828H236.283C235.88 16.0828 235.174 16.0928 234.163 16.1128C233.155 16.1128 231.49 16.1128 229.167 16.1128V20.7275H237.252H237.284ZM257.5 33.1333H250.019V10.9587L257.5 33.1333ZM271.188 24.5332V10.9587H278.638V33.1333H271.188L257.5 19.5588V33.1333H250.019V10.9587H257.5L271.188 24.5332Z" fill="white"/>
</g>
<defs>
<linearGradient id="paint0_linear_191_505" x1="30.9273" y1="6.23951" x2="-17.9984" y2="-24.5585" gradientUnits="userSpaceOnUse">
<stop stop-color="#45ABFF"/>
<stop offset="1" stop-color="#2D03C3"/>
</linearGradient>
<linearGradient id="paint1_linear_191_505" x1="54.3969" y1="38.6476" x2="37.8825" y2="-11.352" gradientUnits="userSpaceOnUse">
<stop stop-color="#45ABFF"/>
<stop offset="1" stop-color="#2D03C3"/>
</linearGradient>
<clipPath id="clip0_191_505">
<rect width="280" height="50" fill="white"/>
</clipPath>
</defs>
</svg>
